<?xml version="1.0" standalone="no"?>
<!DOCTYPE svg PUBLIC "-//W3C//DTD SVG 20010904//EN"
 "http://www.w3.org/TR/2001/REC-SVG-20010904/DTD/svg10.dtd">
<svg version="1.0" xmlns="http://www.w3.org/2000/svg"
 width="640.000000pt" height="640.000000pt" viewBox="0 0 640.000000 640.000000"
 preserveAspectRatio="xMidYMid meet">
<metadata>
Created by potrace 1.14, written by Peter Selinger 2001-2017
</metadata>
<g transform="translate(0.000000,640.000000) scale(0.100000,-0.100000)"
fill="#000000" stroke="none">
<path d="M3031 6384 c0 -11 3 -14 6 -6 3 7 2 16 -1 19 -3 4 -6 -2 -5 -13z"/>
<path d="M2420 6360 c0 -5 -10 -10 -21 -10 -18 0 -19 -2 -9 -15 12 -14 15 -14
31 1 21 19 25 34 9 34 -5 0 -10 -4 -10 -10z"/>
<path d="M3450 6350 c13 -23 20 -26 20 -6 0 8 -7 16 -15 20 -13 4 -14 2 -5
-14z"/>
<path d="M3590 6340 c0 -5 5 -10 10 -10 6 0 10 5 10 10 0 6 -4 10 -10 10 -5 0
-10 -4 -10 -10z"/>
<path d="M3960 6343 c0 -5 5 -15 10 -23 8 -12 10 -11 10 8 0 12 -4 22 -10 22
-5 0 -10 -3 -10 -7z"/>
<path d="M3360 6280 c0 -6 7 -10 15 -10 8 0 15 2 15 4 0 2 -7 6 -15 10 -8 3
-15 1 -15 -4z"/>
<path d="M3012 6260 c-14 -23 -10 -25 19 -9 11 5 17 14 14 20 -9 14 -19 11
-33 -11z"/>
<path d="M2638 6228 c12 -12 24 -19 28 -15 10 10 -16 37 -34 37 -13 0 -12 -4
6 -22z"/>
<path d="M3595 6140 c-3 -5 1 -10 9 -10 9 0 16 5 16 10 0 6 -4 10 -9 10 -6 0
-13 -4 -16 -10z"/>
<path d="M3950 6146 c0 -2 7 -6 15 -10 8 -3 15 -1 15 4 0 6 -7 10 -15 10 -8 0
-15 -2 -15 -4z"/>
<path d="M2465 6110 c3 -5 8 -10 11 -10 2 0 4 5 4 10 0 6 -5 10 -11 10 -5 0
-7 -4 -4 -10z"/>
<path d="M3270 6035 c0 -14 5 -25 10 -25 6 0 10 11 10 25 0 14 -4 25 -10 25
-5 0 -10 -11 -10 -25z"/>
<path d="M3665 6050 c3 -5 13 -10 21 -10 8 0 14 5 14 10 0 6 -9 10 -21 10 -11
0 -17 -4 -14 -10z"/>
<path d="M4200 6050 c-13 -8 -12 -10 3 -10 9 0 17 5 17 10 0 12 -1 12 -20 0z"/>
<path d="M2810 6040 c0 -5 5 -10 11 -10 5 0 7 5 4 10 -3 6 -8 10 -11 10 -2 0
-4 -4 -4 -10z"/>
<path d="M2510 5970 c0 -5 7 -10 15 -10 8 0 15 5 15 10 0 6 -7 10 -15 10 -8 0
-15 -4 -15 -10z"/>
<path d="M1979 5690 c-35 -66 -64 -118 -65 -117 -2 1 8 45 21 97 35 134 35
130 -29 130 l-54 0 -63 -115 c-35 -63 -64 -113 -66 -111 -1 1 11 49 27 107 17
57 30 107 30 111 0 5 -36 8 -80 8 -44 0 -80 -2 -80 -5 0 -3 7 -16 15 -29 15
-22 13 -34 -25 -170 -22 -80 -40 -150 -40 -156 0 -6 33 -10 81 -10 78 0 82 1
112 33 18 18 38 41 45 52 9 15 12 15 8 3 -3 -9 -8 -33 -12 -52 l-6 -36 65 0
c86 0 107 18 176 152 30 56 69 128 87 159 19 31 34 59 34 63 0 3 -27 6 -59 6
l-60 0 -62 -120z"/>
<path d="M2684 5785 c9 -13 16 -29 16 -35 0 -6 -36 -73 -79 -148 -108 -185
-106 -172 -32 -172 l61 0 25 50 c22 44 29 50 56 50 l32 0 -7 -51 -7 -50 58 3
57 3 26 126 c20 100 28 125 40 122 12 -4 13 -3 1 5 -13 9 -11 49 5 105 5 16
-6 17 -131 17 l-137 0 16 -25z m104 -132 c-8 -41 -15 -53 -29 -53 -11 0 -19 2
-19 5 0 9 52 106 55 103 2 -2 -2 -27 -7 -55z"/>
<path d="M3118 5803 c-71 -2 -128 -7 -128 -10 0 -4 9 -16 20 -27 19 -21 19
-22 -35 -171 -30 -83 -55 -153 -55 -157 0 -5 24 -8 54 -8 l54 0 27 75 c15 41
29 75 30 75 1 0 23 -34 49 -75 46 -73 49 -75 87 -75 52 0 51 18 -6 94 -25 33
-45 63 -45 68 0 4 18 8 39 8 48 0 81 34 101 104 11 41 11 49 -4 64 -9 10 -16
24 -16 30 0 7 -10 11 -22 10 -13 -1 -80 -4 -150 -5z m69 -113 c-9 -24 -17 -30
-40 -30 -22 0 -28 4 -23 16 3 9 6 22 6 30 0 9 11 14 34 14 34 0 34 0 23 -30z"/>
<path d="M2180 5792 c0 -5 9 -17 19 -26 21 -19 20 -24 -73 -268 l-25 -68 139
0 140 0 13 33 14 32 -64 3 c-61 3 -64 4 -57 25 19 61 23 67 53 67 24 0 31 6
40 31 6 18 11 34 11 35 0 2 -14 4 -31 4 -26 0 -30 3 -24 18 4 9 10 25 12 35 4
13 16 17 58 17 50 0 54 2 64 31 6 18 11 34 11 35 0 2 -67 4 -150 4 -82 0 -150
-4 -150 -8z"/>
<path d="M3366 5788 c4 -7 13 -20 21 -29 12 -14 7 -36 -42 -164 -30 -81 -55
-152 -55 -156 0 -5 62 -9 138 -9 l139 0 10 35 11 35 -59 0 c-64 0 -67 3 -48
59 9 25 16 31 40 31 22 0 32 6 39 26 15 38 13 44 -19 44 -29 0 -29 1 -18 35
10 34 11 35 64 35 48 0 54 3 63 26 6 14 10 30 10 35 0 5 -64 9 -151 9 -117 0
-149 -3 -143 -12z"/>
<path d="M3772 5768 c22 -28 34 -34 82 -39 31 -4 59 -8 61 -11 3 -2 -20 -66
-50 -141 -30 -75 -55 -139 -55 -142 0 -3 27 -5 59 -5 47 0 60 4 66 18 7 17 21
54 73 197 l29 80 59 3 c41 2 63 8 72 19 8 12 15 14 22 7 7 -7 -7 -58 -45 -159
-30 -82 -55 -152 -55 -157 0 -4 24 -8 53 -8 l54 0 30 78 c29 72 32 77 63 80
28 3 32 1 26 -15 -4 -10 -18 -46 -32 -81 l-23 -63 60 3 61 3 64 173 c35 96 64
178 64 183 0 5 -26 9 -57 9 l-58 0 -25 -68 c-22 -58 -29 -67 -53 -70 -33 -4
-34 9 -7 73 11 26 20 51 20 56 0 5 -121 9 -291 9 l-292 0 25 -32z"/>
<path d="M4541 5771 l22 -30 -53 -143 c-29 -79 -55 -149 -57 -155 -4 -10 27
-13 134 -13 l140 0 11 25 c19 41 15 45 -48 45 -65 0 -67 3 -46 55 12 29 20 35
44 35 24 0 30 6 39 35 11 34 11 35 -18 35 -32 0 -35 7 -17 45 10 22 17 25 63
25 50 0 52 1 62 35 l11 35 -154 0 -155 0 22 -29z"/>
<path d="M3565 5680 c-3 -5 3 -10 14 -10 12 0 21 5 21 10 0 6 -6 10 -14 10 -8
0 -18 -4 -21 -10z"/>
<path d="M1000 5421 c0 -2 5 -20 11 -40 10 -34 5 -53 -67 -249 l-77 -213 31
-42 30 -42 160 -3 161 -2 36 31 c40 35 45 44 75 118 l20 52 -97 -3 -96 -3 -12
-35 c-11 -33 -15 -35 -58 -38 -26 -2 -47 1 -47 5 0 4 27 80 59 168 l59 160 47
6 46 5 -6 -33 -6 -34 92 3 91 3 18 47 18 48 -34 42 -33 43 -211 5 c-115 3
-210 3 -210 1z"/>
<path d="M5050 5426 c0 -2 7 -23 15 -47 15 -41 14 -46 -15 -126 -16 -46 -30
-90 -30 -98 0 -8 14 -30 31 -50 l31 -35 94 0 c52 0 94 -3 94 -7 0 -5 -9 -30
-19 -58 -19 -49 -20 -50 -65 -53 -50 -3 -50 -3 -37 46 l10 32 -88 0 -88 0 -20
-72 c-17 -60 -18 -77 -8 -93 19 -31 79 -43 213 -44 185 -1 203 11 268 184 62
166 57 175 -102 175 -63 0 -114 3 -114 7 0 3 8 30 17 60 l17 53 48 0 c51 0 54
-4 38 -44 l-10 -26 83 0 82 0 18 63 c10 35 17 79 15 98 l-3 34 -237 3 c-131 1
-238 1 -238 -2z"/>
<path d="M1532 5319 c13 -17 27 -36 31 -43 5 -6 -23 -98 -70 -228 l-80 -217
75 -3 c41 -2 77 1 80 7 4 5 25 54 48 110 l41 100 41 3 c23 2 42 0 42 -5 0 -4
-18 -54 -39 -111 l-39 -102 83 0 c70 0 84 3 90 18 33 84 175 484 175 492 0 6
-34 10 -80 10 -74 0 -81 -2 -89 -22 -4 -13 -20 -58 -35 -100 l-28 -78 -44 0
c-24 0 -44 2 -44 5 0 3 16 44 35 92 19 48 35 91 35 95 0 4 -57 8 -126 8 l-125
0 23 -31z"/>
<path d="M2094 5316 c14 -19 26 -40 26 -46 0 -6 -47 -91 -104 -188 -103 -177
-136 -236 -136 -247 0 -3 38 -5 85 -5 l85 0 32 65 32 65 47 0 47 0 -9 -42 c-5
-24 -11 -53 -14 -65 -5 -22 -3 -23 78 -23 l84 0 48 238 c26 130 50 247 53 260
l4 22 -192 0 -192 0 26 -34z m144 -179 c-11 -65 -12 -67 -40 -67 l-29 0 38 69
c21 38 39 69 40 67 1 -1 -3 -32 -9 -69z"/>
<path d="M2490 5344 c0 -3 13 -22 30 -42 l29 -37 -45 -125 c-25 -69 -61 -167
-80 -217 l-33 -93 78 0 77 0 44 125 c25 69 47 125 51 125 3 0 17 -39 29 -87
13 -49 25 -90 27 -92 2 -3 47 38 99 90 106 104 104 106 44 -59 l-38 -103 86 3
85 3 62 186 c34 102 75 213 90 247 15 35 25 65 22 69 -4 3 -38 8 -78 11 l-71
5 -109 -109 c-59 -59 -110 -106 -112 -103 -3 2 -19 50 -36 107 l-32 102 -109
0 c-61 0 -110 -3 -110 -6z"/>
<path d="M3190 5344 c0 -3 13 -22 30 -42 l29 -37 -40 -110 c-23 -61 -58 -158
-80 -217 l-38 -108 79 0 80 0 23 48 c14 26 32 71 41 100 l18 52 97 0 c106 0
150 10 167 38 7 10 23 57 38 104 l26 87 -32 45 -32 46 -203 0 c-112 0 -203 -3
-203 -6z m300 -110 c0 -4 -8 -28 -17 -55 -18 -49 -18 -49 -61 -49 -34 0 -43 3
-39 14 3 8 11 32 18 55 12 40 13 41 56 41 23 0 43 -3 43 -6z"/>
<path d="M3700 5344 c0 -3 13 -23 29 -43 l29 -37 -79 -214 c-43 -118 -79 -216
-79 -217 0 -2 36 -3 79 -3 l79 0 16 43 c8 23 49 137 90 252 42 116 76 213 76
218 0 4 -54 7 -120 7 -66 0 -120 -3 -120 -6z"/>
<path d="M4015 5316 c14 -33 12 -40 -50 -211 -36 -98 -65 -184 -65 -193 0 -8
11 -30 26 -49 l25 -33 140 0 139 0 35 33 c28 26 46 63 100 213 36 100 65 185
65 189 0 4 -14 25 -31 46 l-31 39 -183 0 -184 0 14 -34z m245 -81 c0 -4 -81
-226 -102 -277 -9 -23 -17 -28 -45 -28 -29 0 -34 3 -28 18 3 9 24 67 45 127
61 176 55 165 95 165 19 0 35 -2 35 -5z"/>
<path d="M4460 5342 c0 -5 9 -17 21 -28 41 -37 41 -46 -7 -175 -25 -68 -61
-166 -79 -216 l-34 -93 93 0 92 0 29 120 c16 66 32 115 36 108 4 -7 17 -62 30
-121 l22 -108 80 3 79 3 25 65 c35 93 163 443 163 447 0 2 -36 3 -79 3 l-80 0
-19 -52 c-10 -29 -30 -83 -43 -120 -13 -38 -26 -68 -29 -68 -3 0 -14 37 -23
83 -9 45 -22 99 -28 120 l-10 37 -119 0 c-66 0 -120 -4 -120 -8z"/>
<path d="M3181 4431 c-57 -22 -69 -29 -118 -75 -27 -25 -33 -37 -33 -73 0 -41
-1 -42 -27 -38 -16 2 -48 6 -73 9 -25 3 -54 8 -64 12 -17 7 -18 3 -12 -37 16
-100 82 -201 158 -240 45 -23 76 -24 98 -4 15 13 19 13 39 -9 l22 -24 -44 5
c-49 6 -77 -13 -77 -51 0 -12 -3 -26 -6 -29 -9 -9 -44 11 -81 46 -26 24 -33
27 -33 14 0 -15 -4 -16 -20 -7 -24 13 -26 2 -4 -28 25 -35 93 -75 121 -69 19
3 27 -2 40 -26 15 -31 15 -31 -21 -64 -38 -35 -87 -43 -140 -23 -21 8 -26 6
-26 -6 0 -8 -7 -17 -16 -21 -29 -11 26 -32 85 -33 47 0 57 4 85 33 17 18 41
46 52 62 35 49 39 20 5 -39 -38 -67 -38 -88 -6 -168 45 -111 35 -148 -108
-400 -140 -245 -178 -370 -222 -728 -4 -30 -12 -64 -17 -74 -10 -18 -11 -18
-20 -1 -8 13 -12 14 -18 5 -4 -7 -15 -10 -24 -7 -14 5 -16 27 -16 141 0 83 4
137 10 141 7 4 10 48 8 118 -2 82 0 111 10 115 40 13 57 93 32 156 -8 22 -16
26 -53 26 -24 0 -48 5 -55 12 -9 9 -16 8 -30 -5 -10 -9 -23 -17 -27 -17 -19 0
-55 -54 -55 -83 0 -16 12 -56 27 -89 25 -56 26 -61 10 -73 -13 -9 -18 -33 -21
-106 -3 -52 -11 -125 -19 -164 -9 -38 -18 -95 -22 -127 l-7 -56 -47 1 c-33 2
-45 -2 -43 -11 1 -7 -6 -21 -17 -30 -26 -22 -54 -126 -46 -168 4 -26 1 -38
-15 -54 -20 -20 -20 -20 0 -58 16 -31 18 -44 10 -72 -6 -19 -10 -61 -10 -92 0
-34 -4 -58 -11 -58 -6 0 -28 39 -50 88 -22 48 -45 97 -51 109 -15 31 -2 334
16 377 8 17 37 58 65 90 28 33 56 76 62 95 6 20 16 41 21 47 5 8 3 14 -7 18
-10 3 -32 -11 -61 -39 -25 -25 -50 -43 -55 -40 -20 13 -4 265 17 265 8 0 14
10 14 22 0 16 -3 19 -11 11 -6 -6 -17 -9 -24 -7 -19 8 -23 -4 -37 -92 l-12
-79 -8 89 c-4 50 -13 95 -18 100 -21 21 -31 -18 -27 -104 2 -48 1 -72 -3 -55
-4 17 -8 42 -9 57 -1 36 -20 83 -29 74 -4 -4 -9 -49 -12 -99 l-5 -92 -14 58
c-13 54 -35 75 -46 45 -8 -20 32 -223 56 -289 19 -53 20 -63 9 -105 l-13 -46
-23 79 c-12 43 -43 132 -68 199 -53 144 -86 243 -86 259 0 7 9 15 21 18 25 7
16 27 -12 27 -26 0 -25 32 4 89 19 40 22 63 24 190 2 138 -7 195 -28 174 -4
-4 -11 -35 -14 -68 -4 -33 -8 -70 -11 -83 -4 -21 -5 -22 -30 -5 -25 16 -27 16
-36 0 -5 -9 -16 -17 -25 -17 -27 0 -83 -41 -89 -65 -3 -14 1 -38 10 -56 9 -18
16 -38 16 -46 0 -7 11 -40 25 -73 20 -47 25 -76 25 -140 0 -143 21 -321 52
-440 50 -195 66 -340 37 -340 -4 0 -19 -10 -32 -23 -13 -12 -40 -35 -60 -50
-48 -36 -63 -68 -76 -156 -5 -42 -17 -81 -25 -90 -9 -8 -16 -11 -16 -6 -1 64
-26 194 -56 286 -35 108 -38 123 -42 274 -9 291 -8 351 7 369 11 13 12 38 7
112 -6 93 -6 95 20 121 22 22 26 35 26 83 0 80 -12 100 -59 96 -20 -2 -45 1
-54 7 -14 9 -22 7 -37 -6 -10 -9 -22 -17 -27 -17 -15 0 -55 -51 -55 -71 0 -11
12 -50 26 -85 25 -63 25 -66 9 -100 -10 -22 -16 -58 -15 -102 1 -37 -8 -110
-19 -162 -25 -117 -28 -297 -6 -426 13 -78 14 -95 1 -134 l-14 -45 -1 67 c-2
107 -20 98 -34 -17 -2 -16 -5 3 -6 43 -2 105 -29 90 -32 -18 l-1 -45 -10 40
c-5 22 -11 50 -14 63 -3 13 -9 20 -15 16 -7 -4 -9 -26 -4 -60 4 -36 3 -54 -4
-54 -6 0 -11 -9 -11 -21 0 -11 5 -17 10 -14 6 4 10 -8 10 -29 0 -44 -8 -45
-45 -6 -23 24 -55 40 -55 27 0 -12 43 -81 77 -125 49 -61 50 -68 57 -260 l6
-142 -33 0 c-37 0 -106 29 -125 53 -12 14 -12 26 1 74 9 37 12 78 8 114 -4 30
-4 66 0 80 11 39 10 109 -2 132 -36 69 -178 157 -255 157 -27 0 -27 -1 -8 -15
22 -17 3 -21 -27 -5 -16 9 -19 7 -19 -12 0 -13 -4 -18 -9 -12 -5 5 -4 37 2 75
l10 65 64 11 c86 15 107 34 98 90 -8 52 13 77 77 93 105 26 164 59 142 79 -5
5 -42 20 -83 35 -76 27 -149 65 -168 88 -21 25 -51 118 -41 124 15 10 -117 74
-177 86 -38 7 -55 16 -58 29 -3 11 -13 19 -22 19 -10 0 -23 7 -29 16 -10 13
-21 14 -64 6 l-53 -9 61 62 c33 35 60 72 60 82 0 26 -47 69 -123 113 -34 20
-71 50 -82 68 -11 17 -24 30 -29 28 -6 -1 -23 -18 -38 -37 -22 -27 -29 -47
-31 -87 -3 -68 14 -84 93 -90 33 -2 60 -8 60 -13 0 -21 -105 -89 -168 -109
-106 -34 -112 -41 -98 -130 4 -25 3 -50 -2 -57 -4 -7 -39 -25 -77 -40 -82 -33
-91 -52 -40 -81 27 -17 35 -28 35 -51 0 -22 6 -32 22 -37 17 -5 30 2 60 34 21
23 38 36 38 30 0 -6 -11 -21 -25 -34 -31 -29 -32 -68 -4 -135 l22 -50 -37
-222 c-22 -137 -37 -258 -37 -317 -1 -82 -2 -90 -11 -58 -6 23 -26 52 -54 78
-39 36 -46 49 -60 113 -24 109 -23 248 3 329 27 81 22 126 -18 164 l-29 28 0
-1142 0 -1142 3200 0 3200 0 0 794 c0 696 -2 795 -15 800 -10 3 -15 19 -15 43
0 21 -7 69 -15 108 -17 81 -20 171 -5 180 7 4 10 46 8 107 -3 93 -1 101 20
118 19 16 22 28 22 94 0 77 -4 88 -24 61 -6 -8 -37 -22 -69 -30 -84 -22 -121
-56 -151 -139 -12 -31 -61 -74 -72 -63 -18 18 -15 108 4 168 25 75 55 246 48
265 -12 32 -33 12 -47 -43 l-14 -58 -5 90 c-5 86 -6 90 -27 88 -17 -2 -24 4
-29 23 -16 63 -40 -5 -44 -126 l-2 -55 -9 57 c-12 85 -23 121 -38 126 -12 4
-13 -20 -7 -134 8 -171 2 -185 -52 -126 -23 24 -48 42 -60 42 -12 0 -22 -1
-22 -3 0 -14 70 -132 99 -167 21 -25 45 -59 54 -77 20 -38 25 -117 8 -136 -9
-11 -8 -17 4 -27 11 -9 15 -33 16 -84 0 -81 14 -263 25 -319 7 -38 5 -40 -66
-110 -40 -39 -78 -84 -86 -101 l-13 -31 -20 45 c-29 65 -33 266 -7 365 24 92
25 301 2 403 -9 40 -16 103 -16 139 0 45 -5 72 -15 83 -14 15 -13 21 5 61 35
79 24 124 -37 156 -18 9 -30 10 -45 2 -11 -6 -28 -9 -38 -6 -31 8 -43 -9 -48
-66 -4 -48 -2 -56 19 -71 23 -16 24 -21 21 -111 -2 -66 0 -95 8 -95 8 0 10
-62 6 -226 -5 -210 -7 -233 -31 -305 -15 -44 -30 -79 -33 -79 -4 1 -18 7 -32
15 -14 8 -33 14 -43 15 -10 0 -37 13 -60 29 -23 16 -46 28 -51 27 -17 -2 -26
57 -20 122 4 34 10 62 14 62 5 0 10 19 13 43 2 23 12 67 20 97 21 73 37 212
37 330 0 76 4 103 20 133 11 20 20 45 20 55 0 11 7 34 16 52 21 41 12 57 -42
85 -21 11 -42 24 -45 29 -4 4 -16 3 -27 -3 -11 -6 -23 -11 -25 -11 -3 0 -8 32
-12 70 -4 39 -11 70 -15 70 -26 0 -28 -224 -3 -285 31 -74 22 -134 -46 -312
-34 -90 -67 -185 -73 -213 -7 -33 -14 -46 -20 -38 -13 22 -9 82 10 139 29 86
47 208 33 222 -14 14 -31 -6 -31 -38 0 -11 -4 -26 -9 -34 -6 -9 -9 12 -10 59
0 40 -3 75 -6 79 -10 10 -25 -23 -26 -59 -1 -19 -5 -48 -10 -65 -5 -20 -6 -6
-3 40 3 39 1 81 -4 95 -12 31 -18 19 -31 -70 l-10 -65 4 85 c3 52 14 118 30
170 33 108 29 146 -26 212 -38 45 -70 60 -83 39 -3 -5 -15 -7 -26 -4 -15 4
-22 -2 -30 -22 -6 -15 -19 -29 -30 -32 -12 -3 -20 -14 -20 -26 0 -11 -9 -30
-20 -42 -19 -20 -20 -27 -10 -71 6 -27 23 -69 38 -94 25 -41 27 -53 25 -140
-3 -152 -16 -387 -21 -367 -3 16 -10 18 -37 13 l-34 -7 -6 48 c-3 26 -13 79
-21 117 -7 38 -14 98 -14 134 0 45 -5 71 -15 82 -14 15 -13 22 9 71 35 73 23
113 -42 146 -17 9 -29 10 -37 3 -7 -6 -29 -9 -49 -8 l-37 3 7 80 c9 102 25
140 64 153 16 6 30 18 30 27 0 14 -2 14 -23 0 l-24 -15 26 74 c30 87 24 113
-34 147 -21 13 -35 29 -35 40 0 28 -30 36 -46 14 -12 -16 -14 -6 -14 78 0 79
-3 97 -15 97 -16 0 -17 -4 -40 -128 -12 -70 -20 -89 -45 -112 -26 -24 -30 -35
-30 -82 0 -36 9 -73 29 -117 16 -36 28 -69 26 -75 -2 -6 -6 -23 -9 -37 -3 -16
-15 -29 -28 -33 -23 -7 -23 -7 -2 -16 21 -8 21 -8 4 -102 -10 -51 -25 -147
-35 -213 -9 -66 -21 -138 -26 -160 -5 -22 -9 -105 -11 -185 -1 -80 -3 -125 -5
-100 -5 70 -11 87 -44 125 -54 61 -85 77 -167 86 -43 5 -87 11 -99 15 -18 5
-21 3 -16 -15 5 -18 1 -21 -25 -21 -23 0 -29 4 -26 18 47 229 56 283 45 296
-7 8 -15 79 -19 173 l-8 160 -71 144 c-45 89 -107 192 -162 269 -50 69 -111
163 -138 209 -51 92 -53 107 -37 253 l6 57 -47 28 c-26 15 -78 52 -114 82
l-66 54 50 -6 c28 -3 59 -8 70 -12 32 -10 59 17 51 49 -16 63 -83 84 -163 51
-46 -19 -50 -19 -30 3 9 10 26 39 37 65 14 32 27 47 38 46 38 -3 52 2 83 33
53 54 71 106 70 214 0 52 -2 98 -6 104 -3 5 -26 -4 -52 -20 -26 -17 -51 -30
-57 -30 -5 0 -22 -11 -36 -25 l-27 -26 -12 41 c-15 50 -55 70 -156 76 -54 4
-82 0 -124 -15z m424 -217 c-15 -41 -59 -94 -76 -94 -5 0 -9 9 -9 20 0 11 -7
20 -15 20 -12 0 -15 13 -15 58 0 67 12 89 79 137 l46 34 3 -67 c2 -43 -3 -81
-13 -108z m-610 -14 c34 -14 44 -26 67 -78 22 -50 23 -62 11 -66 -10 -4 -12
-13 -8 -27 7 -20 5 -21 -21 -15 -62 16 -114 76 -148 174 l-15 43 37 -7 c20 -3
55 -14 77 -24z m595 -256 c11 -12 11 -17 -1 -29 -11 -10 -26 -11 -69 -4 -30 5
-66 7 -80 3 -35 -8 -16 8 33 28 53 21 101 22 117 2z m-405 -33 c-15 -13 -115
-44 -122 -37 -4 3 2 15 12 26 14 15 31 20 69 20 29 0 46 -4 41 -9z m-40 -66
c-40 -34 -65 -41 -72 -18 -5 14 62 52 92 52 16 1 12 -6 -20 -34z m282 8 c-8
-7 -37 9 -31 19 3 5 12 4 20 -3 8 -6 13 -14 11 -16z m-178 -16 c-2 -2 -17 -11
-34 -22 l-30 -18 19 21 c11 12 26 22 34 22 9 0 13 -1 11 -3z m162 -23 c12 -14
11 -16 -5 -13 -11 2 -21 10 -24 17 -5 17 13 15 29 -4z m-111 -19 c0 -16 -58
-50 -68 -40 -8 7 43 55 59 55 5 0 9 -7 9 -15z m142 -316 c17 -24 44 -45 68
-55 63 -26 110 -115 201 -387 34 -100 77 -219 95 -264 19 -45 34 -92 34 -105
0 -43 -28 -126 -49 -149 -15 -16 -21 -36 -21 -68 0 -25 -3 -76 -7 -114 -5 -60
-10 -73 -45 -111 -21 -25 -45 -62 -52 -85 -20 -55 -40 -83 -75 -104 l-30 -18
-7 27 c-8 33 30 152 64 197 16 23 22 45 22 84 0 37 4 55 14 59 12 5 12 10 1
32 -7 15 -20 57 -28 95 -12 55 -12 67 -1 67 7 0 18 9 24 20 8 15 8 20 -3 20
-7 0 -29 20 -49 44 -27 32 -34 46 -25 55 8 8 7 11 -5 11 -9 0 -18 4 -20 10 -4
13 -114 40 -162 40 -26 0 -60 -12 -103 -36 -39 -22 -71 -33 -81 -29 -22 8 -27
7 -28 -8 0 -6 -10 -28 -22 -47 -32 -51 -40 -83 -46 -201 -6 -114 4 -161 53
-255 22 -42 44 -144 31 -144 -3 0 -17 11 -30 25 -13 14 -20 25 -16 25 5 0 3 7
-4 15 -15 18 -34 20 -24 3 4 -7 -4 -3 -17 10 -21 20 -24 32 -27 130 -3 84 -8
111 -22 127 -17 19 -50 163 -50 216 0 26 50 156 74 194 7 11 15 36 19 55 28
172 51 286 68 345 24 78 76 188 111 231 13 16 31 40 40 54 12 20 24 25 59 27
41 1 46 -2 71 -38z m2585 -966 c-3 -10 -5 -4 -5 12 0 17 2 24 5 18 2 -7 2 -21
0 -30z m-5561 -15 c16 -26 -6 -249 -41 -413 -13 -60 -26 -126 -29 -146 -8 -45
10 -249 30 -342 19 -94 19 -167 -1 -167 -9 0 -33 -9 -55 -20 l-39 -20 -5 43
c-9 64 -8 168 2 447 9 255 9 255 40 325 17 39 32 82 32 98 0 26 -30 67 -50 67
-5 0 -10 8 -10 18 0 29 -12 34 -33 15 -20 -17 -20 -17 -14 0 4 10 7 27 7 38 0
11 7 19 18 19 9 0 40 11 67 24 58 28 71 30 81 14z m220 -24 c14 -21 16 -41 11
-125 -3 -55 -3 -107 0 -115 3 -9 25 -24 49 -34 48 -21 64 -53 44 -90 -11 -21
-12 -21 -25 -3 -11 15 -14 16 -18 3 -3 -8 -8 -22 -10 -30 -3 -8 -6 -3 -6 12
-1 33 -10 58 -22 58 -5 0 -9 -7 -9 -15 0 -22 -13 -18 -40 11 -18 18 -31 23
-47 19 l-23 -5 0 139 0 140 33 30 c17 17 35 31 39 31 4 0 15 -11 24 -26z
m4017 -25 c3 -10 3 -54 0 -98 -4 -53 -2 -80 6 -85 7 -5 11 -44 11 -111 0 -94
-2 -106 -22 -125 -12 -11 -25 -20 -29 -20 -16 0 -20 67 -9 135 6 39 11 129 11
202 -1 110 1 131 13 127 8 -3 16 -14 19 -25z m-651 -361 c-8 -8 -9 -4 -5 13 4
13 8 18 11 10 2 -7 -1 -18 -6 -23z m-3263 -50 c-1 -7 -5 -24 -9 -38 -7 -22 -8
-21 -9 13 -1 20 4 37 9 37 6 0 10 -6 9 -12z m3633 -281 c-11 -117 -26 -154
-72 -181 l-32 -18 7 23 c17 55 25 69 50 85 18 12 25 25 25 48 0 46 24 194 28
169 2 -12 -1 -69 -6 -126z m-3030 11 c-5 -177 -19 -217 -41 -120 -7 35 -6 55
10 99 10 31 19 66 19 78 0 17 7 35 14 35 1 0 0 -42 -2 -92z m4812 16 c22 -8
22 -82 0 -91 -22 -8 -31 5 -37 55 -5 43 1 50 37 36z m-2204 -165 c0 -43 -5
-62 -21 -80 l-20 -24 5 40 c3 22 9 64 12 93 9 68 24 49 24 -29z m-2299 -36
c13 -32 26 -62 28 -67 10 -24 -24 12 -50 52 -32 50 -36 72 -16 72 7 0 24 -26
38 -57z m-1546 -161 c-4 -42 -10 -71 -12 -64 -3 8 -2 48 2 90 4 42 10 71 12
64 3 -8 2 -48 -2 -90z m-54 -119 c-12 -20 -14 -14 -5 12 4 9 9 14 11 11 3 -2
0 -13 -6 -23z"/>
<path d="M3230 3353 c0 -5 9 -19 19 -32 13 -17 20 -20 26 -12 4 7 -1 21 -11
32 -17 19 -34 25 -34 12z"/>
<path d="M3200 3132 c0 -13 49 -36 57 -28 5 4 -1 14 -11 22 -22 15 -46 19 -46
6z"/>
<path d="M3535 3070 c-4 -6 -9 -8 -13 -6 -4 2 -23 -7 -42 -20 l-34 -24 33 0
c32 0 71 29 71 52 0 11 -7 10 -15 -2z"/>
<path d="M4640 4000 c0 -5 4 -10 9 -10 5 0 18 -3 28 -7 16 -6 16 -5 4 10 -15
19 -41 23 -41 7z"/>
<path d="M1990 3846 c0 -7 9 -16 20 -19 23 -6 26 3 8 21 -16 16 -28 15 -28 -2z"/>
<path d="M4180 3670 c6 -11 17 -20 25 -20 20 0 19 10 -2 26 -26 19 -35 17 -23
-6z"/>
<path d="M2693 3670 c-33 -13 -28 -20 12 -20 26 0 33 3 29 15 -7 17 -10 17
-41 5z"/>
<path d="M5365 3666 c-19 -15 -18 -15 18 -16 27 0 37 4 35 13 -7 18 -31 20
-53 3z"/>
<path d="M4770 3630 c0 -15 31 -60 41 -60 11 0 -16 56 -31 65 -5 3 -10 1 -10
-5z"/>
<path d="M1528 3508 c12 -12 24 -19 28 -15 10 10 -16 37 -34 37 -13 0 -12 -4
6 -22z"/>
<path d="M5937 3483 c-14 -13 -6 -20 18 -15 14 2 22 8 19 13 -6 11 -28 12 -37
2z"/>
<path d="M2110 3475 c0 -14 25 -55 36 -59 18 -7 18 0 -3 35 -15 25 -33 39 -33
24z"/>
<path d="M4542 3440 c-14 -12 -18 -21 -12 -25 12 -7 50 21 50 37 0 13 -13 9
-38 -12z"/>
<path d="M1907 3423 c-12 -11 -8 -23 7 -23 7 0 19 7 26 15 10 12 9 15 -7 15
-11 0 -23 -3 -26 -7z"/>
<path d="M4585 3421 c-10 -18 17 -23 33 -7 15 15 15 16 -5 16 -12 0 -24 -4
-28 -9z"/>
<path d="M2340 3403 c-40 -7 -49 -24 -12 -21 18 1 38 8 44 15 6 7 7 12 2 12
-5 -1 -20 -4 -34 -6z"/>
<path d="M5013 3403 c-13 -2 -23 -8 -23 -13 0 -14 59 -8 64 7 5 13 0 14 -41 6z"/>
<path d="M5156 3368 c13 -45 19 -51 34 -33 11 13 10 19 -5 35 -24 27 -38 25
-29 -2z"/>
<path d="M964 3366 c-8 -20 -1 -47 11 -46 12 0 14 60 3 60 -5 0 -11 -6 -14
-14z"/>
<path d="M4096 3355 c-21 -31 -20 -35 4 -35 11 0 20 6 20 14 0 8 3 21 6 30 10
25 -12 19 -30 -9z"/>
<path d="M5637 3270 c12 -14 19 -16 24 -8 10 17 1 28 -21 28 -19 0 -19 -1 -3
-20z"/>
<path d="M2956 3265 c4 -8 10 -15 15 -15 5 0 9 7 9 15 0 8 -7 15 -15 15 -9 0
-12 -6 -9 -15z"/>
<path d="M3930 3241 c0 -18 18 -21 30 -6 10 13 9 15 -9 15 -11 0 -21 -4 -21
-9z"/>
<path d="M2490 3225 c0 -12 24 -55 31 -55 18 0 20 23 3 41 -16 17 -34 25 -34
14z"/>
<path d="M1437 3190 c-18 -29 -18 -30 1 -30 20 0 32 18 32 46 0 23 -14 16 -33
-16z"/>
<path d="M577 3192 c-3 -4 4 -18 14 -31 15 -18 23 -21 31 -13 9 9 7 17 -7 32
-19 21 -31 25 -38 12z"/>
<path d="M5880 3138 c0 -18 51 -41 63 -29 6 6 -3 16 -21 25 -37 19 -42 20 -42
4z"/>
<path d="M2390 3128 c1 -17 28 -53 35 -46 11 10 -7 58 -21 58 -8 0 -14 -6 -14
-12z"/>
<path d="M5078 3135 c-7 -7 14 -55 25 -55 9 0 9 22 1 44 -6 16 -16 20 -26 11z"/>
<path d="M4110 3108 c0 -10 50 -31 57 -24 3 3 2 9 -1 14 -8 13 -56 22 -56 10z"/>
<path d="M1298 3096 c-17 -12 -25 -36 -13 -36 15 0 54 33 49 41 -7 12 -16 11
-36 -5z"/>
<path d="M6213 3075 c-13 -41 2 -49 17 -9 12 31 13 44 2 44 -5 0 -13 -16 -19
-35z"/>
<path d="M4893 2984 c-10 -21 -9 -24 8 -24 12 0 19 7 19 19 0 30 -14 32 -27 5z"/>
<path d="M2782 2949 c-7 -12 -11 -23 -8 -26 10 -10 33 5 39 26 7 27 -14 27
-31 0z"/>
<path d="M5466 2954 c-8 -22 -8 -24 8 -24 12 0 26 20 26 36 0 12 -29 2 -34
-12z"/>
<path d="M1065 2923 c4 -10 10 -28 12 -40 7 -31 20 -29 26 5 6 30 -7 52 -30
52 -11 0 -13 -5 -8 -17z"/>
<path d="M820 2884 l-35 -25 40 3 c33 2 41 7 43 26 4 28 -4 27 -48 -4z"/>
<path d="M2049 2860 c-19 -15 -21 -19 -7 -20 15 0 48 24 48 36 0 10 -20 3 -41
-16z"/>
<path d="M5740 2813 c1 -27 1 -27 15 -9 19 25 19 36 0 36 -10 0 -15 -10 -15
-27z"/>
<path d="M272 2809 c-13 -10 -22 -26 -20 -34 2 -13 9 -10 31 13 33 34 24 50
-11 21z"/>
<path d="M4260 2818 c-22 -10 -23 -12 -6 -15 10 -3 26 2 34 11 19 18 8 20 -28
4z"/>
<path d="M5185 2780 c-3 -5 1 -10 10 -10 9 0 13 5 10 10 -3 6 -8 10 -10 10 -2
0 -7 -4 -10 -10z"/>
<path d="M1270 2725 c-7 -9 -11 -18 -8 -20 7 -8 38 5 38 15 0 17 -18 19 -30 5z"/>
<path d="M4847 2683 c-3 -15 -1 -32 4 -37 12 -13 17 -6 21 28 4 38 -18 45 -25
9z"/>
<path d="M2310 2677 c0 -8 8 -22 19 -31 16 -14 19 -15 24 -2 3 8 0 19 -6 24
-27 20 -37 23 -37 9z"/>
<path d="M1600 2660 c-8 -5 -12 -12 -8 -15 9 -9 48 4 48 16 0 12 -21 11 -40
-1z"/>
<path d="M5560 2626 c0 -14 4 -27 9 -30 10 -6 23 33 15 46 -10 16 -24 7 -24
-16z"/>
<path d="M6280 2631 c0 -17 30 -25 43 -12 8 8 8 11 0 11 -6 0 -18 3 -27 6 -9
3 -16 1 -16 -5z"/>
<path d="M5247 2610 c-7 -27 9 -35 22 -11 14 26 14 31 -3 31 -7 0 -16 -9 -19
-20z"/>
<path d="M2364 2516 c-8 -22 -1 -59 14 -64 8 -2 12 8 12 32 0 37 -16 57 -26
32z"/>
<path d="M4366 2391 c-8 -12 3 -41 15 -41 12 0 12 37 0 45 -5 3 -12 1 -15 -4z"/>
<path d="M4886 2371 c15 -15 67 -17 71 -3 3 8 -8 12 -38 12 -26 0 -39 -4 -33
-9z"/>
<path d="M1712 2227 c-9 -10 -8 -18 2 -32 12 -17 13 -17 18 2 8 29 -5 48 -20
30z"/>
<path d="M2230 2211 c0 -15 59 -19 71 -4 9 10 3 13 -30 13 -22 0 -41 -4 -41
-9z"/>
</g>
</svg>
