<?xml version="1.0" standalone="no"?>
<!DOCTYPE svg PUBLIC "-//W3C//DTD SVG 20010904//EN"
 "http://www.w3.org/TR/2001/REC-SVG-20010904/DTD/svg10.dtd">
<svg version="1.0" xmlns="http://www.w3.org/2000/svg"
 width="225.000000pt" height="225.000000pt" viewBox="0 0 225.000000 225.000000"
 preserveAspectRatio="xMidYMid meet">
<metadata>
Created by potrace 1.14, written by Peter Selinger 2001-2017
</metadata>
<g transform="translate(0.000000,225.000000) scale(0.100000,-0.100000)"
fill="#000000" stroke="none">
<path d="M1750 2239 c-113 -22 -230 -113 -276 -213 -111 -242 21 -508 277
-562 66 -14 169 -11 169 5 0 3 -21 15 -48 25 -98 41 -200 176 -217 288 -4 26
-13 53 -21 59 -19 15 -18 58 1 65 8 3 20 25 26 48 28 104 101 193 208 249 l62
34 -47 7 c-56 7 -75 7 -134 -5z"/>
<path d="M1137 1899 c-10 -6 -17 -22 -17 -39 0 -25 -4 -30 -23 -30 -35 0 -65
-27 -78 -69 -23 -78 36 -131 145 -131 52 0 56 -2 62 -27 11 -41 -16 -53 -112
-53 -63 0 -83 -3 -88 -15 -8 -22 22 -45 60 -45 29 0 34 -3 34 -24 0 -13 7 -29
15 -36 23 -19 45 -4 45 29 0 25 5 30 30 36 75 16 104 112 51 166 -26 26 -36
29 -94 29 -52 0 -67 4 -83 21 -14 15 -16 24 -8 37 9 13 29 18 97 20 88 3 116
15 103 47 -4 10 -19 15 -51 15 -43 0 -45 1 -45 29 0 36 -19 53 -43 40z"/>
<path d="M558 1273 c12 -2 32 -2 45 0 12 2 2 4 -23 4 -25 0 -35 -2 -22 -4z"/>
<path d="M683 1273 c9 -2 25 -2 35 0 9 3 1 5 -18 5 -19 0 -27 -2 -17 -5z"/>
<path d="M465 1260 c-25 -11 1 -11 35 0 20 6 21 8 5 8 -11 0 -29 -3 -40 -8z"/>
<path d="M410 1240 c-8 -5 -10 -10 -5 -10 6 0 17 5 25 10 8 5 11 10 5 10 -5 0
-17 -5 -25 -10z"/>
<path d="M1123 1234 c-3 -9 -2 -24 4 -33 8 -13 35 -16 154 -19 177 -3 191 -1
187 36 l-3 27 -168 3 c-148 2 -168 1 -174 -14z"/>
<path d="M1572 1238 c-16 -16 -15 -23 4 -42 20 -21 132 -22 160 -2 15 12 17
18 8 33 -9 14 -26 19 -85 21 -49 2 -78 -1 -87 -10z"/>
<path d="M354 1214 c-18 -14 -18 -14 6 -3 31 14 36 19 24 19 -6 0 -19 -7 -30
-16z"/>
<path d="M289 1173 c-13 -16 -12 -17 4 -4 16 13 21 21 13 21 -2 0 -10 -8 -17
-17z"/>
<path d="M224 1118 c-36 -39 -82 -97 -58 -73 27 26 106 115 102 115 -2 0 -22
-19 -44 -42z"/>
<path d="M423 1143 c9 -2 23 -2 30 0 6 3 -1 5 -18 5 -16 0 -22 -2 -12 -5z"/>
<path d="M1110 1071 c0 -5 8 -18 18 -30 16 -21 24 -22 177 -19 l160 3 0 25 0
25 -177 3 c-103 1 -178 -1 -178 -7z"/>
<path d="M1571 1066 c-6 -7 -9 -21 -5 -30 9 -24 169 -24 178 0 12 32 -13 44
-89 44 -49 0 -76 -4 -84 -14z"/>
<path d="M145 1019 c-4 -6 -5 -12 -2 -15 2 -3 7 2 10 11 7 17 1 20 -8 4z"/>
<path d="M125 979 c-4 -6 -5 -12 -2 -15 2 -3 7 2 10 11 7 17 1 20 -8 4z"/>
<path d="M1190 893 c1 -41 12 -44 146 -41 l129 3 3 28 3 27 -140 0 c-128 0
-141 -2 -141 -17z"/>
<path d="M1566 894 c-12 -32 13 -44 89 -44 76 0 101 12 89 44 -5 13 -22 16
-89 16 -67 0 -84 -3 -89 -16z"/>
<path d="M91 864 c0 -11 3 -14 6 -6 3 7 2 16 -1 19 -3 4 -6 -2 -5 -13z"/>
<path d="M83 805 c0 -22 2 -30 4 -17 2 12 2 30 0 40 -3 9 -5 -1 -4 -23z"/>
<path d="M1160 715 l0 -35 139 0 c77 0 146 3 155 6 21 8 21 50 0 58 -9 3 -78
6 -155 6 l-139 0 0 -35z"/>
<path d="M1572 738 c-34 -34 1 -58 85 -58 70 0 104 18 87 47 -9 14 -26 19 -85
21 -49 2 -78 -1 -87 -10z"/>
<path d="M94 616 c-35 -16 -44 -32 -44 -85 0 -40 32 -81 63 -81 14 0 17 -11
19 -57 l2 -58 3 51 4 51 157 6 c86 4 322 7 525 7 354 0 368 1 387 20 11 11 20
27 20 35 0 12 22 15 118 17 l117 3 0 25 0 25 -115 3 c-102 2 -117 5 -138 25
-20 19 -35 22 -107 22 -90 0 -82 4 -180 -79 -60 -51 -90 -51 -150 0 -103 87
-64 79 -373 81 -217 2 -284 0 -308 -11z"/>
<path d="M1571 566 c-6 -7 -9 -21 -5 -30 9 -24 169 -24 178 0 12 32 -13 44
-89 44 -49 0 -76 -4 -84 -14z"/>
<path d="M30 266 c0 -7 27 -70 61 -140 l61 -126 113 0 113 0 -66 140 -67 140
-107 0 c-85 0 -108 -3 -108 -14z"/>
</g>
</svg>
