<?xml version="1.0" standalone="no"?>
<!DOCTYPE svg PUBLIC "-//W3C//DTD SVG 20010904//EN"
 "http://www.w3.org/TR/2001/REC-SVG-20010904/DTD/svg10.dtd">
<svg version="1.0" xmlns="http://www.w3.org/2000/svg"
 width="640.000000pt" height="640.000000pt" viewBox="0 0 640.000000 640.000000"
 preserveAspectRatio="xMidYMid meet">
<metadata>
Created by potrace 1.14, written by Peter Selinger 2001-2017
</metadata>
<g transform="translate(0.000000,640.000000) scale(0.100000,-0.100000)"
fill="#000000" stroke="none">
<path d="M1979 5696 c-2 -2 -26 -6 -54 -10 -135 -16 -294 -61 -397 -111 -25
-13 -48 -21 -51 -19 -2 2 -10 -2 -17 -11 -7 -8 -17 -15 -22 -15 -17 0 -200
-125 -258 -177 -30 -26 -75 -70 -100 -98 -25 -27 -53 -59 -63 -70 -25 -27
-118 -168 -151 -227 -57 -103 -129 -309 -142 -408 -2 -19 -8 -60 -14 -90 -11
-66 -8 -2509 4 -2560 4 -19 16 -74 27 -122 28 -129 100 -305 160 -396 16 -24
29 -45 29 -48 0 -3 26 -40 59 -82 60 -78 163 -185 236 -243 165 -132 416 -248
602 -280 37 -6 88 -15 113 -19 25 -5 587 -8 1250 -9 1255 0 1276 1 1451 43 73
17 160 49 262 95 69 31 238 139 292 186 104 91 174 165 225 240 19 28 37 52
40 55 14 14 82 133 108 190 38 83 79 205 93 272 37 181 37 183 35 1448 -1 679
-5 1249 -9 1265 -4 17 -15 66 -23 110 -25 124 -103 319 -165 413 -16 24 -29
45 -29 48 0 8 -90 124 -130 168 -55 60 -112 116 -143 139 -16 12 -34 27 -41
34 -29 26 -188 123 -250 153 -72 33 -226 92 -226 86 0 -2 -20 2 -45 9 -25 8
-64 17 -87 21 -24 3 -68 10 -98 14 -51 8 -2463 13 -2471 6z m2624 -916 c191
-72 255 -308 128 -469 -58 -72 -145 -111 -245 -107 -165 6 -289 141 -282 308
9 203 210 338 399 268z m-1183 -399 c168 -37 364 -122 485 -211 76 -56 208
-188 264 -263 42 -57 157 -267 146 -267 -3 0 1 -13 10 -30 36 -69 67 -232 70
-370 4 -158 -11 -266 -56 -407 -60 -187 -155 -341 -298 -483 -97 -96 -135
-125 -245 -188 -200 -113 -386 -161 -616 -157 -203 4 -343 38 -522 129 -127
64 -199 116 -301 217 -98 98 -157 178 -217 293 -61 119 -85 186 -121 341 -17
71 -19 313 -3 402 30 175 117 385 213 518 50 68 213 235 230 235 6 0 11 4 11
8 0 4 14 17 31 27 17 11 43 28 58 37 113 75 306 148 455 172 95 16 326 14 406
-3z"/>
<path d="M3119 3996 c-2 -2 -25 -6 -50 -9 -65 -8 -192 -52 -263 -92 -106 -59
-212 -161 -281 -270 -28 -44 -40 -67 -76 -150 -29 -67 -43 -158 -43 -280 0
-114 4 -141 28 -220 68 -218 204 -381 410 -489 38 -20 78 -38 90 -41 11 -2 21
-4 21 -5 0 -1 7 -3 15 -5 8 -1 35 -8 60 -15 59 -16 230 -21 300 -9 292 51 532
256 625 533 34 101 40 147 39 276 -2 179 -64 350 -173 480 -67 79 -63 75 -132
131 -121 98 -286 157 -460 164 -58 3 -107 3 -110 1z"/>
</g>
</svg>
