<?xml version="1.0" standalone="no"?>
<!DOCTYPE svg PUBLIC "-//W3C//DTD SVG 20010904//EN"
 "http://www.w3.org/TR/2001/REC-SVG-20010904/DTD/svg10.dtd">
<svg version="1.0" xmlns="http://www.w3.org/2000/svg"
 width="225.000000pt" height="225.000000pt" viewBox="0 0 225.000000 225.000000"
 preserveAspectRatio="xMidYMid meet">
<metadata>
Created by potrace 1.14, written by Peter Selinger 2001-2017
</metadata>
<g transform="translate(0.000000,225.000000) scale(0.100000,-0.100000)"
fill="#000000" stroke="none">
<path d="M121 2192 c-19 -9 -44 -30 -55 -45 -21 -28 -21 -33 -21 -1017 0 -983
0 -989 21 -1016 11 -15 33 -37 48 -48 27 -21 33 -21 1011 -21 978 0 984 0
1011 21 15 11 37 33 48 48 21 27 21 33 21 1016 0 984 0 989 -21 1017 -11 15
-36 36 -55 45 -32 17 -100 18 -1004 18 -904 0 -972 -1 -1004 -18z m349 -132
c24 -24 25 -47 3 -72 -23 -26 -59 -23 -79 7 -19 29 -11 63 19 75 32 13 35 12
57 -10z m201 -11 c8 -16 8 -28 0 -46 -9 -19 -17 -24 -43 -21 -40 4 -56 28 -40
62 15 34 66 37 83 5z m1385 -370 c18 -20 19 -47 19 -745 0 -681 -1 -724 -18
-741 -17 -17 -68 -18 -932 -18 -864 0 -915 1 -932 18 -17 17 -18 60 -18 741 0
698 1 725 19 745 l19 21 912 0 912 0 19 -21z"/>
<path d="M320 1531 c-6 -13 -10 -138 -10 -340 0 -306 1 -321 19 -331 27 -14
875 -14 902 0 18 10 19 25 19 338 0 242 -3 331 -12 340 -9 9 -125 12 -460 12
-432 0 -448 -1 -458 -19z m605 -156 c14 -13 25 -31 25 -40 0 -21 -36 -55 -60
-55 -24 0 -60 34 -60 55 0 18 44 65 60 65 6 0 22 -11 35 -25z"/>
<path d="M1362 608 c-8 -8 -12 -53 -12 -138 0 -85 4 -130 12 -138 9 -9 84 -12
274 -12 225 0 265 2 278 16 13 12 16 40 16 138 0 81 -4 126 -12 134 -17 17
-539 17 -556 0z"/>
</g>
</svg>
