<?xml version="1.0" standalone="no"?>
<!DOCTYPE svg PUBLIC "-//W3C//DTD SVG 20010904//EN"
 "http://www.w3.org/TR/2001/REC-SVG-20010904/DTD/svg10.dtd">
<svg version="1.0" xmlns="http://www.w3.org/2000/svg"
 width="225.000000pt" height="225.000000pt" viewBox="0 0 225.000000 225.000000"
 preserveAspectRatio="xMidYMid meet">
<metadata>
Created by potrace 1.14, written by Peter Selinger 2001-2017
</metadata>
<g transform="translate(0.000000,225.000000) scale(0.100000,-0.100000)"
fill="#000000" stroke="none">
<path d="M148 2240 c-51 -15 -94 -49 -118 -92 l-25 -43 0 -715 c0 -706 0 -716
21 -755 11 -22 40 -53 63 -70 41 -29 47 -30 178 -35 l135 -5 12 -36 c35 -102
118 -179 229 -213 15 -5 17 -20 17 -121 0 -171 -48 -155 465 -155 512 0 465
-16 465 153 l0 113 58 24 c76 32 152 108 179 180 l21 55 133 5 c147 6 176 15
222 70 15 17 31 47 37 68 6 24 10 283 10 728 l0 690 -27 55 c-23 45 -37 59
-82 82 l-55 27 -955 -1 c-526 0 -968 -4 -983 -9z m752 -280 c25 -25 25 -55 0
-80 -19 -19 -33 -20 -309 -20 -318 0 -321 1 -321 60 0 59 3 60 321 60 276 0
290 -1 309 -20z"/>
</g>
</svg>
