<?xml version="1.0" standalone="no"?>
<!DOCTYPE svg PUBLIC "-//W3C//DTD SVG 20010904//EN"
 "http://www.w3.org/TR/2001/REC-SVG-20010904/DTD/svg10.dtd">
<svg version="1.0" xmlns="http://www.w3.org/2000/svg"
 width="1000.000000pt" height="1000.000000pt" viewBox="0 0 1000.000000 1000.000000"
 preserveAspectRatio="xMidYMid meet">
<metadata>
Created by potrace 1.14, written by Peter Selinger 2001-2017
</metadata>
<g transform="translate(0.000000,1000.000000) scale(0.100000,-0.100000)"
fill="#000000" stroke="none">
<path d="M4606 8341 c-108 -10 -171 -20 -173 -28 -6 -17 57 -687 65 -695 4 -3
93 2 197 13 105 10 192 19 194 19 4 0 -8 142 -12 147 -2 1 -56 -2 -120 -9 -65
-6 -120 -8 -123 -5 -3 3 -8 32 -11 65 l-6 60 92 7 c50 4 94 12 97 17 4 5 3 39
-1 75 l-7 66 -98 -7 -97 -7 -6 63 c-3 35 -5 63 -4 64 1 1 56 7 122 13 65 7
121 14 123 16 2 2 1 36 -3 74 -7 69 -8 71 -34 70 -14 -1 -102 -9 -195 -18z"/>
<path d="M5394 8309 c-22 -17 -40 -32 -42 -34 -4 -3 -72 -522 -72 -545 0 -10
17 -36 38 -59 l37 -41 132 -16 c72 -9 142 -14 155 -10 13 3 37 18 55 34 26 22
33 37 41 90 10 73 9 74 -85 85 -51 6 -52 5 -62 -25 l-11 -31 -62 7 c-34 3 -66
10 -71 15 -13 13 34 370 51 388 11 11 27 13 66 8 62 -9 77 -20 74 -54 -3 -25
0 -26 66 -34 38 -5 72 -5 76 0 4 4 10 35 14 68 6 58 5 63 -26 103 -37 49 -32
47 -191 67 -150 19 -138 20 -183 -16z"/>
<path d="M4183 8284 c-88 -20 -84 -8 -52 -146 16 -68 29 -128 29 -135 0 -12
-46 -28 -111 -39 l-35 -6 -28 129 c-16 70 -31 131 -35 135 -11 12 -141 -22
-141 -37 0 -22 152 -669 159 -677 8 -9 141 22 141 33 0 5 -11 58 -25 117 -14
59 -27 117 -30 128 -4 20 2 24 66 39 38 10 72 15 75 12 3 -3 19 -63 35 -133
16 -70 31 -129 33 -131 2 -2 36 3 75 12 64 15 71 19 66 38 -3 12 -38 165 -79
340 -40 175 -77 322 -82 326 -5 4 -33 2 -61 -5z"/>
<path d="M5970 8238 c-18 -43 -181 -642 -178 -656 2 -9 29 -22 66 -32 75 -21
67 -30 112 130 17 63 33 116 35 118 4 5 128 -29 137 -37 4 -4 -9 -64 -28 -135
-20 -71 -32 -132 -27 -136 14 -13 127 -40 134 -32 9 11 191 673 186 678 -2 3
-34 13 -71 24 -50 14 -68 16 -71 7 -2 -7 -18 -64 -36 -127 -17 -63 -34 -118
-38 -122 -7 -8 -121 19 -135 32 -6 6 22 128 60 252 4 14 -7 21 -53 34 -32 9
-64 19 -70 21 -7 3 -17 -6 -23 -19z"/>
<path d="M3455 8075 c-104 -40 -191 -78 -193 -84 -5 -14 40 -131 51 -131 4 0
34 11 67 24 l60 25 14 -32 c7 -18 50 -131 96 -252 46 -121 87 -225 92 -232 7
-8 25 -5 70 13 34 13 63 26 65 28 3 2 -39 118 -92 258 -53 139 -97 257 -98
261 -1 5 25 19 57 31 33 12 62 28 64 35 6 18 -39 131 -52 130 -6 0 -96 -34
-201 -74z"/>
<path d="M6698 7962 c-66 -71 -433 -502 -436 -513 -2 -5 25 -23 60 -39 l63
-29 35 38 35 38 94 -41 93 -40 -5 -48 c-5 -42 -3 -50 16 -62 30 -20 107 -50
112 -44 4 4 91 635 98 706 2 20 -8 28 -60 52 l-62 28 -43 -46z m-19 -333 c-7
-52 -15 -97 -18 -101 -4 -4 -30 4 -59 17 l-53 25 30 32 c17 18 48 54 69 79 20
26 38 46 40 44 1 -1 -3 -45 -9 -96z"/>
<path d="M7103 7658 c-218 -301 -313 -437 -313 -447 0 -15 107 -84 118 -77 5
3 38 47 72 98 69 102 87 125 75 93 -10 -26 -74 -238 -75 -246 0 -4 19 -19 41
-34 51 -33 55 -32 172 69 48 42 87 74 87 71 0 -3 -27 -48 -60 -101 -34 -52
-63 -101 -66 -108 -4 -11 94 -86 114 -86 4 0 22 24 39 53 225 372 333 551 333
552 0 2 -31 23 -101 69 l-26 17 -149 -131 c-82 -72 -164 -148 -182 -168 l-32
-37 21 49 c25 58 149 395 149 406 0 9 -106 80 -119 80 -6 0 -50 -55 -98 -122z"/>
<path d="M2645 7665 c-88 -58 -161 -109 -163 -114 -5 -14 371 -591 384 -591
14 0 318 198 322 210 5 13 -61 119 -73 120 -5 0 -55 -30 -109 -66 -75 -49
-101 -62 -108 -52 -27 41 -60 99 -57 102 2 2 37 25 77 50 39 26 72 51 72 56 0
11 -68 120 -75 120 -2 0 -39 -23 -82 -50 l-78 -50 -20 25 c-11 13 -28 38 -38
53 l-17 29 105 67 105 67 -23 40 c-12 22 -31 50 -42 64 l-20 24 -160 -104z"/>
<path d="M2145 7289 c-71 -62 -130 -118 -130 -125 0 -14 444 -534 456 -534 10
0 107 82 108 91 1 3 -37 50 -84 104 -81 94 -84 99 -65 112 19 13 32 8 144 -51
l124 -66 61 52 c34 28 61 55 61 59 0 4 -56 36 -125 71 l-125 63 0 55 c0 54 -1
56 -81 150 -106 125 -96 117 -159 124 l-55 6 -130 -111z m220 -106 c19 -21 35
-45 35 -54 0 -9 -18 -33 -41 -54 -40 -36 -41 -36 -61 -18 -11 10 -34 35 -50
56 l-30 38 38 34 c22 19 47 34 56 35 10 0 33 -17 53 -37z"/>
<path d="M7555 7103 c-126 -140 -230 -259 -230 -263 0 -4 23 -28 52 -54 l51
-46 49 52 c27 29 67 72 89 96 l39 44 78 -70 78 -69 52 4 c51 4 53 6 149 106
54 56 101 111 104 122 3 12 2 42 -3 67 -7 42 -17 54 -131 157 -67 61 -128 111
-135 110 -6 0 -115 -115 -242 -256z m295 15 c22 -18 40 -42 40 -53 0 -23 -68
-95 -90 -95 -9 0 -33 17 -53 38 l-38 39 46 51 c26 29 49 52 52 52 2 0 22 -15
43 -32z"/>
<path d="M4470 7116 c-219 -76 -341 -188 -445 -408 -52 -110 -119 -220 -147
-241 -23 -17 -193 -67 -230 -67 -9 0 -27 14 -40 30 -13 18 -31 30 -44 30 -18
0 -26 10 -39 50 -12 37 -23 52 -40 56 -16 4 -28 18 -35 40 -8 23 -18 34 -31
34 -10 0 -19 -3 -19 -6 0 -49 134 -545 169 -627 26 -60 46 -58 46 5 0 24 6 51
12 60 10 12 10 27 1 72 -10 54 -10 58 11 72 14 10 21 26 21 49 0 25 7 38 28
53 38 26 173 72 213 72 40 0 163 -54 207 -92 65 -56 221 -118 294 -118 23 0
26 -7 45 -87 19 -85 24 -185 10 -199 -3 -4 -2 -14 2 -23 9 -16 44 -212 57
-320 6 -45 15 -62 56 -109 34 -39 53 -72 64 -111 8 -31 34 -113 57 -184 l42
-127 -71 -68 c-51 -48 -76 -81 -88 -114 -13 -34 -23 -48 -37 -48 -26 0 -56
-47 -42 -69 5 -9 16 -16 24 -16 10 0 15 -16 17 -53 3 -48 1 -53 -23 -62 -14
-5 -28 -17 -32 -26 -8 -22 10 -49 33 -49 16 0 19 -6 16 -44 -2 -38 -10 -53
-52 -97 -38 -40 -50 -60 -50 -83 0 -17 0 -34 0 -38 0 -17 22 -6 38 20 10 15
42 48 71 72 61 52 98 57 169 25 48 -22 49 -28 22 -89 -22 -48 -24 -63 -11 -89
11 -20 32 -194 37 -300 2 -40 5 -76 8 -80 10 -17 -21 -81 -58 -122 l-39 -43 6
-88 c3 -49 2 -91 -2 -93 -4 -3 -16 -27 -25 -53 -10 -26 -29 -69 -42 -95 -32
-61 -121 -298 -139 -368 -30 -116 -51 -162 -82 -175 -68 -29 -119 -126 -94
-181 15 -35 15 -36 -24 -87 -20 -26 -60 -102 -90 -169 -48 -109 -62 -129 -114
-178 -52 -47 -66 -69 -104 -158 -45 -104 -57 -122 -116 -175 -17 -16 -31 -37
-31 -47 0 -10 -7 -31 -15 -46 -18 -35 -19 -56 -3 -72 14 -14 275 -17 296 -3 8
5 17 23 21 42 5 24 13 35 31 39 18 4 35 27 70 95 43 84 202 355 287 490 136
215 181 283 288 441 128 188 346 487 364 498 18 12 206 -265 366 -539 48 -82
96 -162 107 -177 10 -15 31 -58 47 -95 15 -37 52 -111 81 -163 97 -172 91
-142 75 -335 -17 -205 -19 -305 -5 -305 6 0 10 8 10 18 0 9 7 94 15 187 8 94
15 180 15 193 0 61 43 6 150 -197 44 -83 47 -86 80 -86 34 0 35 -1 40 -45 3
-25 9 -51 13 -57 6 -10 66 -13 242 -13 l235 0 6 26 c10 39 -12 52 -118 73
-132 26 -204 59 -217 103 -26 85 -75 207 -102 254 -16 28 -64 125 -107 215
-43 90 -93 191 -111 224 -18 33 -40 72 -47 87 -13 23 -11 72 11 379 13 194 29
357 35 363 5 5 10 20 10 33 0 15 10 28 30 38 41 21 60 63 60 135 0 64 -14 103
-56 153 -29 35 -30 63 -4 102 36 55 19 95 -42 95 -30 0 -63 57 -88 153 -25
100 -32 116 -76 172 l-39 50 4 162 c3 188 -3 211 -77 271 -25 20 -65 54 -88
75 -25 23 -57 40 -78 44 -59 9 -79 41 -82 128 -2 42 -6 80 -9 86 -4 5 -2 16 5
24 7 9 9 38 6 82 -9 123 -15 140 -62 183 -43 39 -45 40 -119 40 -42 0 -86 -5
-98 -11 -40 -21 -86 -72 -92 -103 -14 -69 -13 -67 -63 -61 -93 13 -132 43
-132 104 0 17 -4 40 -9 53 -5 13 -12 36 -16 51 -3 15 -15 31 -26 36 -15 5 -29
31 -50 92 -16 46 -42 111 -58 144 -37 77 -61 141 -61 164 0 10 -18 54 -40 99
-58 117 -60 131 -16 180 20 21 36 47 36 56 0 9 6 16 14 16 8 0 24 8 36 18 22
18 22 18 6 97 -9 43 -15 79 -14 80 2 1 18 8 36 15 48 19 67 53 66 119 -1 108
-79 283 -147 332 -22 16 -47 29 -55 29 -13 0 -12 3 2 13 17 13 18 20 6 103
-12 89 -22 115 -44 113 -6 0 -40 -10 -76 -23z m74 -108 c7 -55 6 -58 -17 -69
-14 -6 -29 -21 -35 -34 -8 -18 -36 -31 -129 -60 -65 -20 -151 -52 -190 -70
-40 -19 -73 -31 -73 -29 0 17 87 128 136 174 70 66 110 92 213 136 86 38 85
38 95 -48z m100 -645 c17 -58 17 -90 2 -96 -9 -4 -16 -2 -16 2 0 19 -66 48
-98 43 -18 -2 -32 -8 -32 -13 0 -5 -7 -9 -15 -9 -8 0 -15 -4 -15 -10 0 -5 -10
-20 -21 -31 -19 -19 -30 -21 -80 -16 -35 3 -83 17 -121 35 l-63 30 65 1 c60 1
273 50 310 71 27 16 78 12 84 -7z m910 -2116 c19 -64 24 -95 20 -134 -9 -68 6
-108 84 -233 36 -58 78 -131 94 -163 17 -33 53 -81 88 -114 33 -31 60 -64 60
-73 0 -9 5 -21 12 -28 8 -8 8 -15 -1 -25 -9 -11 -8 -17 4 -27 20 -17 19 -101
-5 -435 -11 -148 -20 -278 -20 -288 0 -15 -4 -13 -24 10 -37 45 -48 72 -67
164 -10 50 -39 136 -67 200 -27 63 -52 125 -55 139 -4 24 -35 115 -65 195 -8
22 -33 77 -55 122 -30 62 -38 90 -34 112 5 23 -3 50 -29 105 -31 65 -35 82
-30 123 10 81 25 244 31 332 9 131 22 135 59 18z"/>
<path d="M7952 6724 l-262 -235 46 -55 c26 -30 51 -53 55 -52 5 2 126 108 269
237 257 231 260 234 243 255 -36 44 -77 86 -83 86 -4 0 -124 -106 -268 -236z"/>
<path d="M1716 6860 l-46 -49 17 -29 c164 -263 379 -592 387 -591 6 0 30 23
54 51 40 46 42 52 29 71 -45 69 -46 59 23 139 35 40 66 75 67 77 2 3 19 -3 38
-12 20 -9 43 -17 53 -17 21 1 96 86 89 103 -4 10 -640 307 -658 307 -4 0 -27
-22 -53 -50z m341 -238 l61 -29 -40 -47 -40 -47 -54 86 c-30 48 -54 88 -54 90
0 5 45 -14 127 -53z"/>
<path d="M8149 6534 c-118 -85 -219 -161 -226 -167 -7 -7 -15 -37 -18 -67 l-7
-55 77 -105 c42 -58 82 -110 88 -117 7 -6 36 -16 64 -21 l53 -9 207 149 c115
83 216 158 227 168 10 10 22 41 27 70 l8 51 -85 117 c-88 121 -92 125 -160
135 -40 7 -44 4 -255 -149z m290 -70 c17 -25 31 -53 29 -61 -3 -18 -294 -233
-314 -233 -13 0 -84 91 -84 108 0 15 300 232 320 232 9 0 31 -21 49 -46z"/>
<path d="M1253 6228 c-4 -7 -47 -85 -95 -173 -66 -122 -84 -163 -75 -171 13
-12 591 -323 608 -327 10 -2 189 318 189 340 0 11 -100 73 -118 73 -5 0 -31
-41 -57 -90 -70 -132 -63 -126 -116 -100 -72 37 -72 33 -23 120 25 44 42 85
39 90 -4 6 -33 24 -65 40 l-59 30 -46 -85 -46 -84 -54 26 c-30 15 -55 31 -55
36 0 5 25 55 55 112 61 114 63 106 -22 149 -39 19 -54 23 -60 14z"/>
<path d="M8484 6052 c-164 -86 -305 -161 -312 -165 -9 -6 -5 -21 14 -60 15
-29 31 -57 36 -64 10 -13 65 11 230 103 44 24 83 44 85 44 3 0 -37 -46 -88
-101 -52 -56 -109 -119 -127 -140 l-33 -38 41 -81 c22 -44 44 -80 48 -80 10 0
602 308 618 321 13 11 -44 129 -62 129 -6 0 -87 -40 -180 -89 -93 -49 -171
-87 -173 -85 -2 2 44 52 101 111 58 59 124 129 147 155 l42 46 -35 70 c-20 39
-39 73 -44 76 -4 2 -143 -66 -308 -152z"/>
<path d="M970 5674 c-12 -36 -18 -69 -14 -74 5 -5 79 -39 164 -77 l155 -68
-95 -5 -94 -5 -15 -48 -15 -48 40 -32 c112 -92 116 -90 -71 -36 -93 27 -173
45 -177 41 -14 -14 -48 -126 -41 -133 5 -3 154 -46 333 -94 179 -49 330 -90
336 -92 12 -4 65 127 57 140 -3 5 -59 49 -124 97 l-119 89 88 -7 c48 -4 118
-7 156 -7 l68 0 24 65 c12 35 22 66 20 67 -5 5 -612 280 -633 287 -19 6 -24
-1 -43 -60z"/>
<path d="M8867 5558 l-118 -40 -26 -53 -26 -52 32 -95 c17 -52 29 -102 25
-111 -8 -23 -81 -44 -102 -31 -9 6 -24 33 -33 60 -21 60 -23 74 -6 74 6 0 18
4 26 9 11 7 10 20 -10 76 -23 63 -25 66 -51 61 -69 -14 -97 -34 -123 -88 l-25
-53 48 -135 47 -135 51 -27 51 -28 129 45 c70 25 129 47 130 48 1 1 13 24 27
52 l25 50 -35 97 c-40 111 -38 117 28 137 51 15 58 10 88 -71 15 -43 17 -58 8
-58 -7 0 -21 -6 -32 -13 -18 -14 -18 -16 1 -68 27 -81 26 -80 95 -57 56 19 62
24 86 73 l26 53 -49 138 -49 139 -45 22 c-25 12 -52 22 -60 22 -8 0 -68 -19
-133 -41z"/>
</g>
</svg>
